USFL
nRows=238
nColumns=2
inDegrees=yes
endheader
time	tib_ant_r	
4.3246	 51.963842	
4.35786	 51.953350	
4.39113	 51.934148	
4.4244	 51.938745	
4.45766	 51.939486	
4.49093	 51.926353	
4.52419	 51.957512	
4.55746	 51.966778	
4.59073	 51.939527	
4.62399	 51.953498	
4.65726	 51.976499	
4.69052	 51.932856	
4.72379	 51.940110	
4.75706	 51.927364	
4.79032	 51.935979	
4.82359	 51.928583	
4.85685	 51.920976	
4.89012	 51.943058	
4.92339	 51.933326	
4.95665	 51.943450	
4.98992	 51.953744	
5.02319	 51.922835	
5.05645	 51.900324	
5.08972	 51.910266	
5.12298	 51.904086	
5.15625	 51.937856	
5.18952	 51.919789	
5.22278	 51.928458	
5.25605	 51.930756	
5.28931	 51.942034	
5.32258	 51.952922	
5.35585	 51.943699	
5.38911	 51.941498	
5.42238	 51.979655	
5.45565	 51.979236	
5.48891	 51.953549	
5.52218	 51.931458	
5.55544	 51.949967	
5.58871	 51.915835	
5.62198	 51.949527	
5.65524	 51.934671	
5.68851	 51.888398	
5.72177	 51.889917	
5.75504	 51.886991	
5.78831	 51.940850	
5.82157	 51.964957	
5.85484	 51.956330	
5.8881	 51.947964	
5.92137	 51.979884	
5.95464	 52.004161	
5.9879	 51.974877	
6.02117	 51.949116	
6.05444	 51.931702	
6.0877	 51.955657	
6.12097	 51.996472	
6.15423	 51.970374	
6.1875	 51.964809	
6.22077	 51.887669	
6.25403	 51.819224	
6.2873	 51.795385	
6.32056	 51.837558	
6.35383	 51.596690	
6.3871	 51.207551	
6.42036	 51.062824	
6.45363	 49.932934	
6.4869	 49.573662	
6.52016	 49.184833	
6.55343	 48.491594	
6.58669	 47.801612	
6.61996	 47.118970	
6.65323	 46.366058	
6.68649	 45.884527	
6.71976	 45.530600	
6.75302	 45.071085	
6.78629	 44.533245	
6.81956	 44.299215	
6.85282	 44.360884	
6.88609	 44.301360	
6.91935	 44.273666	
6.95262	 44.243921	
6.98589	 44.289587	
7.01915	 44.216335	
7.05242	 43.986401	
7.08569	 43.935924	
7.11895	 44.101044	
7.15222	 44.182818	
7.18548	 44.236412	
7.21875	 44.473119	
7.25202	 44.487303	
7.28528	 44.518209	
7.31855	 44.491319	
7.35181	 44.513239	
7.38508	 44.466859	
7.41835	 44.407351	
7.45161	 44.473349	
7.48488	 44.557809	
7.51815	 44.548091	
7.55141	 44.508811	
7.58468	 44.552704	
7.61794	 44.607039	
7.65121	 44.566432	
7.68448	 44.467284	
7.71774	 44.538650	
7.75101	 44.535820	
7.78427	 44.589278	
7.81754	 44.639291	
7.85081	 44.685013	
7.88407	 44.645920	
7.91734	 44.617524	
7.9506	 44.539933	
7.98387	 44.584188	
8.01714	 44.612642	
8.0504	 44.660610	
8.08367	 44.510978	
8.11694	 44.569614	
8.1502	 44.520920	
8.18347	 44.428240	
8.21673	 44.446985	
8.25	 44.383771	
8.28327	 44.288781	
8.31653	 44.213665	
8.3498	 44.253219	
8.38306	 44.304392	
8.41633	 44.206007	
8.4496	 44.125351	
8.48286	 44.222596	
8.51613	 44.247516	
8.5494	 44.233918	
8.58266	 44.210699	
8.61593	 44.312448	
8.64919	 44.307887	
8.68246	 44.323858	
8.71573	 44.385900	
8.74899	 44.338904	
8.78226	 44.309177	
8.81552	 44.261901	
8.84879	 44.328987	
8.88206	 44.263319	
8.91532	 44.193230	
8.94859	 44.172631	
8.98185	 44.151557	
9.01512	 43.955913	
9.04839	 43.933410	
9.08165	 43.923698	
9.11492	 43.859469	
9.14819	 43.925920	
9.18145	 43.934948	
9.21472	 43.982029	
9.24798	 44.042686	
9.28125	 44.042564	
9.31452	 44.016973	
9.34778	 44.023181	
9.38105	 43.998260	
9.41431	 43.898824	
9.44758	 43.958249	
9.48085	 43.956662	
9.51411	 43.937682	
9.54738	 43.968166	
9.58065	 43.948011	
9.61391	 43.952566	
9.64718	 43.962894	
9.68044	 43.908526	
9.71371	 43.773361	
9.74698	 43.830885	
9.78024	 43.734713	
9.81351	 43.709879	
9.84677	 43.649068	
9.88004	 43.691567	
9.91331	 43.627020	
9.94657	 43.571916	
9.97984	 43.571741	
10.0131	 43.554459	
10.0464	 43.540797	
10.0796	 43.502776	
10.1129	 43.544895	
10.1462	 43.537134	
10.1794	 43.506295	
10.2127	 43.489043	
10.246	 43.432238	
10.2792	 43.475114	
10.3125	 43.498474	
10.3458	 43.491998	
10.379	 43.429935	
10.4123	 43.440160	
10.4456	 43.397928	
10.4788	 43.430330	
10.5121	 43.433152	
10.5454	 43.355200	
10.5786	 43.341279	
10.6119	 43.402729	
10.6452	 43.430876	
10.6784	 43.342352	
10.7117	 43.264897	
10.745	 43.213867	
10.7782	 43.288359	
10.8115	 43.228418	
10.8448	 43.210970	
10.878	 43.218723	
10.9113	 43.222187	
10.9446	 43.243459	
10.9778	 43.182299	
11.0111	 43.178396	
11.0444	 43.192647	
11.0776	 43.193094	
11.1109	 43.254288	
11.1442	 43.317233	
11.1774	 43.974545	
11.2107	 44.392740	
11.244	 44.924393	
11.2772	 45.711086	
11.3105	 46.673657	
11.3437	 47.450790	
11.377	 47.759600	
11.4103	 47.540517	
11.4435	 47.624624	
11.4768	 47.631993	
11.5101	 47.599781	
11.5433	 47.714652	
11.5766	 47.843447	
11.6099	 47.583183	
11.6431	 47.670339	
11.6764	 47.816383	
11.7097	 47.705405	
11.7429	 47.806841	
11.7762	 47.958419	
11.8095	 48.147398	
11.8427	 48.170108	
11.876	 48.105965	
11.9093	 48.144967	
11.9425	 48.201563	
11.9758	 48.203697	
12.0091	 48.226956	
12.0423	 48.289681	
12.0756	 48.375619	
12.1089	 48.367628	
12.1421	 48.379128	
12.1754	 48.330023	
12.2087	 48.374525	
